# xmcd CD database file
#
# Track frame offsets:
#	150
#	45505
#	63511
#	134875
#	174926
#	236063
#
# Disc length: 3612 seconds
#
# Revision: 0
# Processed by: cddbd v1.5.2PL0 Copyright (c) Steve Scherf et al.
# Submitted via: CDex 1.70beta2
#
DISCID=520e1a06
DTITLE=Snatam Kaur - Grace
DYEAR=1900
DGENRE=New Age
TTITLE0=Ong namo
TTITLE1=Ray Man Shabad
TTITLE2=Hari Har
TTITLE3=Ra Ma Da Sa
TTITLE4=By Thy Grace
TTITLE5=Long Time Sun
EXTD=
EXTT0=
EXTT1=
EXTT2=
EXTT3=
EXTT4=
EXTT5=
PLAYORDER=
